<svg width="414" height="91" viewBox="0 0 414 91" fill="none" xmlns="http://www.w3.org/2000/svg">
<path d="M329.406 36.1852C394.492 39.3514 461.588 13.381 487 6.10352e-05L-23.3328 1.64204e-05C-26.7464 26.762 -27.2015 81.7559 -1.71335 87.636C30.1469 94.9861 63.7139 91.0283 117.194 68.4126C170.673 45.7969 248.048 32.2275 329.406 36.1852Z" fill="#5BB6FC" fill-opacity="0.25"/>
<path d="M286.489 31.8112C343.694 34.5947 402.665 11.7636 425 6.10352e-05L-23.5347 2.1823e-05C-26.5349 23.527 -26.935 71.8733 -4.53323 77.0426C23.4689 83.5043 52.9712 80.0249 99.9749 60.143C146.978 40.261 214.984 28.3318 286.489 31.8112Z" fill="white"/>
</svg>