<?xml version="1.0" encoding="utf-8"?>
<!-- Generator: Adobe Illustrator 21.0.0, SVG Export Plug-In . SVG Version: 6.00 Build 0)  -->
<svg version="1.1" id="Layer_1" xmlns="http://www.w3.org/2000/svg" xmlns:xlink="http://www.w3.org/1999/xlink" x="0px" y="0px"
	 viewBox="0 0 323.8 239.9" style="enable-background:new 0 0 323.8 239.9;" xml:space="preserve">
<style type="text/css">
	.st0{fill-rule:evenodd;clip-rule:evenodd;fill:#A5D6F5;}
	.st1{fill-rule:evenodd;clip-rule:evenodd;fill:#7AB5E5;}
	.st2{fill-rule:evenodd;clip-rule:evenodd;fill:#007FB2;}
	.st3{fill-rule:evenodd;clip-rule:evenodd;fill:#262424;}
	.st4{fill-rule:evenodd;clip-rule:evenodd;fill:#E4A448;}
	.st5{fill-rule:evenodd;clip-rule:evenodd;fill:#4C7FAF;}
	.st6{fill-rule:evenodd;clip-rule:evenodd;fill:#DA802D;}
</style>
<g>
	<g>
		<path class="st0" d="M258,3.7c-29.4,0.7-26.2,61.9-26.2,61.9s10.6-38.6,33.6-35.4c21.9,3.1,28.7,29,30.5,48.2
			c1.7,19.2-7.3,61.6-46.7,53.2c-39-8.2,33.7,31,49.7,13.4c20.4-22.4,23.7-48.3,20.4-76.5C315.2,34.1,297,2.1,258,3.7z"/>
		<path class="st0" d="M65.8,3.7c29.4,0.7,26.2,61.9,26.2,61.9S81.5,26.9,58.5,30.2c-21.9,3.1-28.7,29-30.5,48.2
			c-1.8,19.2,7.3,61.6,46.7,53.2c39-8.2-33.7,31-49.7,13.4C4.6,122.6,1.3,96.7,4.6,68.5C8.6,34.1,26.7,2.1,65.8,3.7z"/>
		<path class="st1" d="M164.2,0.4c29.4,0.7,44.9,44.4,44.9,44.4S176-7.8,146.3,54.5c-29.7,62.3-38.3,111.7-84.2,111.3
			c-28.9-1.2-42.8-27.6-42.8-27.6s11.9,12.5,34.2,7.9C103.7,135.7,100.4-2.1,164.2,0.4z"/>
		<path class="st2" d="M159.4,0.4c-29.4,0.7-46.3,44.4-46.3,44.4s34.4-52.6,64.2,9.7c29.7,62.3,38.3,111.7,84.2,111.3
			c28.9-1.2,42.8-27.6,42.8-27.6s-11.9,12.5-34.2,7.9C220,135.7,223.2-2.1,159.4,0.4z"/>
		<path class="st2" d="M146.3,111.7C116.6,49.4,108,0,62.1,0.4C33.2,1.5,17.8,27.9,17.8,28c0,0,0,0,0,0
			c-39.9,57.7-3.8,137.5,46,138.2c6.1-0.1,13.3-2.3,16.4-3.3c-8.1,2.5-44.1,10.5-67.7-36.9C-7.7,81.6,8.5,12.3,56.4,20.8
			c47.2,14.9,45.3,147.4,107.8,145c29.4-0.7,44.9-44.4,44.9-44.4S176,174,146.3,111.7z"/>
		<path class="st3" d="M80.3,162.8c1.1-0.3,1.7-0.6,1.7-0.6S81.3,162.5,80.3,162.8z"/>
		<path class="st1" d="M177.5,111.7C207.2,49.4,215.8,0,261.7,0.4C290.6,1.5,305.9,27.9,306,28c0,0,0,0,0,0
			c39.9,57.7,3.8,137.5-46,138.2c-6.1-0.1-13.3-2.3-16.4-3.3c8.1,2.5,44.1,10.5,67.7-36.9c20.3-44.3,4.1-113.6-43.8-105.1
			c-47.2,14.9-45.3,147.4-107.8,145c-29.4-0.7-46-44.1-46-44.1S147.8,174,177.5,111.7z"/>
		<path class="st3" d="M243.5,162.8c-1.1-0.3-1.7-0.6-1.7-0.6S242.4,162.5,243.5,162.8z"/>
		<path class="st4" d="M13.7,42.7c13.6-24.4,39.8-33.6,61.4-9c4.1,4.7,7,10.1,9.9,15.6c11.7,21.8,16.6,47,28.4,68.4
			c3,5.3,6.4,10.5,10.9,14.6c2.2,2.1,4.6,3.9,7.3,5.4c7.6,4.2,17.4,5.6,25.2,0.9C192.5,117.4,197.2-0.1,259.6,0
			c8.3,0,16.3,2.5,23.6,6.5c-7.3-3.9-15.3-6.2-23.6-6.1c-59.7,1-63.4,117.9-101.4,139.9c-11.3,6.5-26.6,2-35.5-6.4
			c-18.9-17.8-26.1-60.2-38.7-84.2c-2.9-5.4-6.2-10.7-10.2-15.3C52.8,9.9,29.1,20.2,13.7,42.7z"/>
	</g>
	<g>
		<g>
			<path class="st5" d="M0.8,238.8l6.3-45.6H8l18.5,37.4l18.3-37.4h0.7l6.5,45.6h-4.4l-4.5-32.6L27,238.8h-1.2L9.6,205.9l-4.3,32.9
				H0.8L0.8,238.8z M82.4,192.1c6.9,0,12.6,2.3,17.2,6.9c4.6,4.6,6.9,10.3,6.9,17c0,6.7-2.3,12.3-6.9,17c-4.6,4.6-10.2,7-16.9,7
				c-6.7,0-12.4-2.3-17-6.9c-4.6-4.6-6.9-10.2-6.9-16.8c0-4.4,1.1-8.4,3.2-12.2c2.1-3.7,5-6.7,8.6-8.8
				C74.3,193.1,78.2,192.1,82.4,192.1L82.4,192.1z M82.6,196.5c-3.3,0-6.5,0.9-9.5,2.6c-3,1.8-5.3,4.1-7,7.1c-1.7,3-2.5,6.3-2.5,10
				c0,5.4,1.9,10,5.6,13.7c3.7,3.7,8.2,5.6,13.5,5.6c3.5,0,6.8-0.9,9.8-2.6c3-1.7,5.3-4.1,7-7c1.7-3,2.5-6.3,2.5-9.9
				c0-3.6-0.8-6.9-2.5-9.8c-1.7-2.9-4-5.3-7.1-7C89.3,197.4,86,196.5,82.6,196.5L82.6,196.5z M115.7,238.8v-45.6h9.4
				c6.8,0,11.7,0.6,14.8,1.6c4.4,1.6,7.8,4.2,10.3,8.1c2.5,3.8,3.7,8.4,3.7,13.7c0,4.6-1,8.6-2.9,12c-2,3.5-4.5,6-7.6,7.7
				c-3.1,1.7-7.5,2.5-13.2,2.5H115.7L115.7,238.8z M120.1,234.5h5.2c6.3,0,10.6-0.4,13-1.2c3.4-1.1,6.1-3.1,8-6
				c1.9-2.9,2.9-6.5,2.9-10.6c0-4.4-1.1-8.2-3.2-11.3c-2.1-3.1-5.1-5.3-8.8-6.4c-2.8-0.9-7.5-1.3-14-1.3h-3.2V234.5L120.1,234.5z
				 M181.3,193.2l21.2,45.6h-4.9l-7.1-15h-19.7l-7,15h-5.1l21.4-45.6H181.3L181.3,193.2z M180.7,202.8l-7.8,16.6h15.6L180.7,202.8
				L180.7,202.8z M209.4,193.2h4.5v41.1h17.5v4.4h-22V193.2z"/>
			<path class="st6" d="M282.4,200.8l-3.5,3.3c-2.5-2.5-5.3-4.4-8.3-5.7c-3-1.3-6-1.9-8.8-1.9c-3.6,0-7,0.9-10.2,2.6
				c-3.2,1.8-5.7,4.1-7.5,7.2c-1.8,3-2.7,6.2-2.7,9.5c0,3.4,0.9,6.7,2.7,9.8c1.8,3.1,4.4,5.5,7.6,7.3c3.2,1.8,6.8,2.7,10.6,2.7
				c4.7,0,8.6-1.3,11.9-4c3.2-2.6,5.1-6.1,5.7-10.3h-14.5v-4.4h19.6c0,7-2.1,12.6-6.3,16.8c-4.1,4.1-9.7,6.2-16.6,6.2
				c-8.4,0-15.1-2.9-20-8.6c-3.8-4.4-5.7-9.5-5.7-15.3c0-4.3,1.1-8.3,3.2-12c2.2-3.7,5.1-6.6,8.9-8.7c3.8-2.1,8-3.1,12.8-3.1
				c3.9,0,7.5,0.7,10.9,2.1C275.9,195.5,279.2,197.8,282.4,200.8L282.4,200.8z M293.9,193.2h9.1c5,0,8.5,0.2,10.3,0.6
				c2.7,0.6,4.9,1.9,6.6,4c1.7,2,2.5,4.5,2.5,7.5c0,2.5-0.6,4.7-1.7,6.5c-1.2,1.9-2.8,3.3-5,4.3c-2.2,1-5.1,1.4-9,1.5l16.3,21.2
				h-5.6l-16.3-21.2h-2.6v21.2h-4.5V193.2L293.9,193.2z M298.5,197.6v15.5l7.8,0.1c3,0,5.3-0.3,6.7-0.9c1.5-0.6,2.6-1.5,3.4-2.8
				c0.8-1.3,1.2-2.7,1.2-4.3c0-1.5-0.4-2.9-1.2-4.2c-0.8-1.2-1.9-2.1-3.3-2.7c-1.3-0.5-3.6-0.8-6.7-0.8H298.5z"/>
		</g>
	</g>
</g>
</svg>
