<?xml version="1.0" encoding="utf-8"?>
<!-- Generator: Adobe Illustrator 21.0.0, SVG Export Plug-In . SVG Version: 6.00 Build 0)  -->
<svg version="1.1" id="Layer_1" xmlns="http://www.w3.org/2000/svg" xmlns:xlink="http://www.w3.org/1999/xlink" x="0px" y="0px"
	 viewBox="0 0 331.8 268.7" style="enable-background:new 0 0 331.8 268.7;" xml:space="preserve">
<style type="text/css">
	.st0{fill:#1989CD;}
</style>
<path class="st0" d="M271.1,268.7c-32.8-76-83-136.2-158-173.9c-5.3-2.7-11.1-7.4-13.4-12.5C88.7,56.8,78.7,30.8,68.4,5
	c0.9-1.7,1.9-3.3,2.8-5c29.5,12.7,60.2,23.2,88.2,38.6c88.2,48.4,144.5,122.7,171.1,219.6c0.9,3.4,0.8,7,1.2,10.5
	C311.6,268.7,291.4,268.7,271.1,268.7z"/>
<path class="st0" d="M0,268.7c6.8-6.3,13.7-12.6,20.5-19c39.9-37.5,47.1-79.4,22.3-128.7c-2-4.1-4.1-8.1-7.6-14.9
	c64.5,15,120.1,40.9,165.2,86.1c21.7,21.7,41.8,45.3,49.3,76.5C166.5,268.7,83.2,268.7,0,268.7z"/>
</svg>
